<svg xmlns="http://www.w3.org/2000/svg" width="18" height="22" viewBox="-3 -3 24 28" fill="none"><g id="deeditor_bgCarrier" stroke-width="0">
    <rect id="dee_c_e" x="-3" y="-3" width="24" height="28" rx="0" fill="#344040" strokewidth="0"/>
  </g>
  <path fill-rule="evenodd" clip-rule="evenodd" d="M4.77168 0.505062H13.2283C14.2218 0.45428 15.1955 0.787237 15.9344 1.43045C16.6733 2.07366 17.1167 2.97425 17.1666 3.93346V20.3291C17.168 20.6575 17.0259 20.9712 16.7752 21.1932C16.5246 21.4151 16.1886 21.5248 15.8498 21.4953C15.5529 21.4953 15.2642 21.401 15.0283 21.2271L9.7973 17.3905C9.30333 17.0329 8.62412 17.0329 8.13015 17.3905L2.94747 21.2271C2.71813 21.3963 2.43875 21.4902 2.15013 21.4953C1.81135 21.5248 1.47535 21.4151 1.2247 21.1932C0.974036 20.9712 0.831942 20.6575 0.833323 20.3291V3.93346C0.883285 2.97425 1.32663 2.07366 2.06552 1.43045C2.8044 0.787237 3.77809 0.45428 4.77168 0.505062ZM10.9208 16.0028L15.3303 19.268L15.3062 3.93346C15.1918 2.91679 14.2602 2.17252 13.2041 2.25424H4.74752C3.69146 2.17252 2.75978 2.91679 2.64545 3.93346V19.268L7.05495 16.0028C8.19674 15.1631 9.77904 15.1631 10.9208 16.0028Z" fill="#e91e63"/>
</svg>